<mxfile host="app.diagrams.net" modified="2023-02-08T05:58:42.325Z" agent="5.0 (Windows NT 6.3; Win64; x64) AppleWebKit/537.36 (KHTML, like Gecko) Chrome/109.0.0.0 Safari/537.36" etag="dCFbdjM8swH5-B93HiU4" version="20.8.17" type="github">
  <diagram name="Page-1" id="LI-ZjJZ3MSObeUCvqdD2">
    <mxGraphModel dx="1434" dy="764" grid="1" gridSize="10" guides="1" tooltips="1" connect="1" arrows="1" fold="1" page="1" pageScale="1" pageWidth="850" pageHeight="1100" math="0" shadow="0">
      <root>
        <mxCell id="0" />
        <mxCell id="1" parent="0" />
        <mxCell id="7C4OtXl0k1RfghjygM6V-3" value="" style="edgeStyle=orthogonalEdgeStyle;rounded=0;orthogonalLoop=1;jettySize=auto;html=1;" edge="1" parent="1" source="7C4OtXl0k1RfghjygM6V-1" target="7C4OtXl0k1RfghjygM6V-2">
          <mxGeometry relative="1" as="geometry" />
        </mxCell>
        <mxCell id="7C4OtXl0k1RfghjygM6V-1" value="Start" style="ellipse;whiteSpace=wrap;html=1;" vertex="1" parent="1">
          <mxGeometry x="365" y="30" width="120" height="80" as="geometry" />
        </mxCell>
        <mxCell id="7C4OtXl0k1RfghjygM6V-5" value="" style="edgeStyle=orthogonalEdgeStyle;rounded=0;orthogonalLoop=1;jettySize=auto;html=1;" edge="1" parent="1" source="7C4OtXl0k1RfghjygM6V-2" target="7C4OtXl0k1RfghjygM6V-4">
          <mxGeometry relative="1" as="geometry" />
        </mxCell>
        <mxCell id="7C4OtXl0k1RfghjygM6V-2" value="arrWithGiry[]" style="shape=parallelogram;perimeter=parallelogramPerimeter;whiteSpace=wrap;html=1;fixedSize=1;" vertex="1" parent="1">
          <mxGeometry x="320" y="150" width="210" height="70" as="geometry" />
        </mxCell>
        <mxCell id="7C4OtXl0k1RfghjygM6V-4" value="" style="shape=hexagon;perimeter=hexagonPerimeter2;whiteSpace=wrap;html=1;fixedSize=1;" vertex="1" parent="1">
          <mxGeometry x="320" y="270" width="210" height="80" as="geometry" />
        </mxCell>
      </root>
    </mxGraphModel>
  </diagram>
</mxfile>
